<?xml version="1.0" encoding="utf-8"?>
<svg viewBox="0 0 448 512" xmlns="http://www.w3.org/2000/svg">
  <path d="M 438.6 150.6 C 451.1 138.1 451.1 117.8 438.6 105.3 L 342.6 9.3 C 330.1 -3.2 309.8 -3.2 297.3 9.3 C 284.8 21.8 284.8 42.1 297.3 54.6 L 338.7 96 L 32 96 C 14.3 96 0 110.3 0 128 C 0 145.7 14.3 160 32 160 L 338.7 160 L 297.3 201.4 C 284.8 213.9 284.8 234.2 297.3 246.7 C 309.8 259.2 330.1 259.2 342.6 246.7 L 438.6 150.7 L 438.6 150.6 Z" style="pointer-events: none; fill: rgba(0, 0, 0, 0.5);">
    <title>Top</title>
  </path>
  <path d="M 105.3 502.6 C 117.8 515.1 138.1 515.1 150.6 502.6 C 163.1 490.1 163.1 469.8 150.6 457.3 L 109.3 416 L 416 416 C 433.7 416 448 401.7 448 384 C 448 366.3 433.7 352 416 352 L 109.3 352 L 150.7 310.6 C 163.2 298.1 163.2 277.8 150.7 265.3 C 138.2 252.8 117.9 252.8 105.4 265.3 L 9.4 361.3 C -3.1 373.8 -3.1 394.1 9.4 406.6 L 105.4 502.6 L 105.3 502.6 Z" style="pointer-events: none;">
    <title>Bottom</title>
  </path>
</svg>